<?xml version="1.0" encoding="utf-8"?>
<?xml-stylesheet type="text/xsl" href="rss1.xsl"?>
<rss version="2.0" xmlns:atom="http://www.w3.org/2005/Atom" xmlns:content="http://purl.org/rss/1.0/modules/content/" xmlns:dc="http://purl.org/dc/elements/1.1/" xmlns:media="http://search.yahoo.com/mrss/">
<channel>
 <title>Getty</title>
 <link>http://www.gettyimg.com/</link>
 <atom:link href="http://www.gettyimg.com/" rel="self" type="application/rss+xml" />

 
                <item>
                <title><![CDATA[【HD Live Performances】WEB-RiP - GAGA CHROMATICA BALL (2024) 1080p]]></title>
                <link><![CDATA[https://sharemania.us/threads/gaga-chromatica-ball-2024-1080p.245245/]]></link>
                <description><![CDATA[<article>
<blockquote class="messageText SelectQuoteContainer ugc baseHtml">
<b>GAGA CHROMATICA BALL </b><br>
<br>
Plot: In front of 52,000 people, Lady Gaga delivers a career-defining performance at Dodger Stadium in Los Angeles during her 2022 Chromatica Ball Tour.<br>
<br>
<img src="https://i.imgur.com/7KLYsxs.jpeg" class="bbCodeImage LbImage" alt="[​IMG]" data-url="https://i.imgur.com/7KLYsxs.jpeg" style=""> <br>
<br>
<div class="bbCodeBlock bbCodeCode">
<div class="type">Code:</div>
<pre>gaga.chromatica.ball.2024.WEB.h264-RBB.mp4
General
Complete name                            : D:\gaga.chromatica.ball.2024.WEB.h264-RBB.mp4
Format                                   : MPEG-4
Format profile                           : Base Media
Codec ID                                 : isom (isom/iso2/avc1/mp41)
File size                                : 855 MiB
Duration                                 : 1 h 52 min
Overall bit rate                         : 1 064 kb/s
Writing application                      : Lavf56.25.101
 
Video
ID                                       : 1
Format                                   : AVC
Format/Info                              : Advanced Video Codec
Format profile                           : Baseline@L3.1
Format settings                          : 1 Ref Frames
Format settings, CABAC                   : No
Format settings, Reference frames        : 1 frame
Format settings, GOP                     : N=1
Codec ID                                 : avc1
Codec ID/Info                            : Advanced Video Coding
Duration                                 : 1 h 52 min
Bit rate                                 : 900 kb/s
Width                                    : 720 pixels
Height                                   : 300 pixels
Display aspect ratio                     : 1.999
Original display aspect ratio            : 2.000
Frame rate mode                          : Constant
Frame rate                               : 23.976 (24000/1001) FPS
Color space                              : YUV
Chroma subsampling                       : 4:2:0
Bit depth                                : 8 bits
Scan type                                : Progressive
Bits/(Pixel*Frame)                       : 0.174
Stream size                              : 723 MiB (85%)
Writing library                          : x264 core 148
Encoding settings                        : cabac=0 / ref=1 / deblock=1:0:0 / analyse=0x1:0x111 / me=dia / subme=7 / psy=1 / psy_rd=1.00:0.00 / mixed_ref=0 / me_range=4 / chroma_me=1 / trellis=0 / 8x8dct=0 / cqm=0 / deadzone=21,11 / fast_pskip=1 / chroma_qp_offset=-2 / threads=8 / lookahead_threads=1 / sliced_threads=0 / nr=0 / decimate=1 / interlaced=0 / bluray_compat=0 / constrained_intra=0 / bframes=0 / weightp=0 / keyint=12 / keyint_min=7 / scenecut=40 / intra_refresh=0 / rc_lookahead=12 / rc=abr / mbtree=1 / bitrate=900 / ratetol=1.0 / qcomp=0.60 / qpmin=3 / qpmax=51 / qpstep=4 / ip_ratio=1.40 / aq=1:1.00
Language                                 : English
Codec configuration box                  : avcC
 
Audio
ID                                       : 2
Format                                   : AAC LC
Format/Info                              : Advanced Audio Codec Low Complexity
Codec ID                                 : mp4a-40-2
Duration                                 : 1 h 52 min
Duration_LastFrame                       : -9 ms
Bit rate mode                            : Constant
Bit rate                                 : 160 kb/s
Channel(s)                               : 2 channels
Channel layout                           : L R
Sampling rate                            : 48.0 kHz
Frame rate                               : 46.875 FPS (1024 SPF)
Compression mode                         : Lossy
Stream size                              : 129 MiB (15%)
Language                                 : English
Default                                  : Yes
Alternate group                          : 1
 
 
 </pre>
</div><b>DOWNLOAD</b><br>
<div class="bbCodeBlock bbCodeVfcHH HiddenContent">
<div class="attribution type">Hidden Content:</div>
<blockquote>You must reply before you can see the hidden data contained here.</blockquote>
</div>
<div class="messageTextEndMarker">&nbsp;</div>
</blockquote>
</article>]]></description>
                <author><![CDATA[taongjebe]]></author>
                </item>

                
                <item>
                <title><![CDATA[【HD Live Performances】WEB-RiP - GAGA CHROMATICA BALL (2024) 1080p.AMZN.WEB-DL.DDP5.1.Atmos.H.264-FLUX]]></title>
                <link><![CDATA[https://sharemania.us/threads/gaga-chromatica-ball-2024-1080p-amzn-web-dl-ddp5-1-atmos-h-264-flux.245246/]]></link>
                <description><![CDATA[<article>
<blockquote class="messageText SelectQuoteContainer ugc baseHtml">
Thanks
<div class="messageTextEndMarker">&nbsp;</div>
</blockquote>
</article>]]></description>
                <author><![CDATA[taongjebe]]></author>
                </item>

                
                <item>
                <title><![CDATA[【Bugs!】XG - GRL GVNG (Bugs! 4K)]]></title>
                <link><![CDATA[https://sharemania.us/threads/xg-grl-gvng-bugs-4k.245244/]]></link>
                <description><![CDATA[<article>
<blockquote class="messageText SelectQuoteContainer ugc baseHtml">
Thanks!
<div class="messageTextEndMarker">&nbsp;</div>
</blockquote>
</article>]]></description>
                <author><![CDATA[Once14]]></author>
                </item>

                </channel></rss>